<?xml version="1.0" encoding="UTF-8" standalone="no"?>
<!DOCTYPE svg PUBLIC "-//W3C//DTD SVG 1.1//EN"
 "http://www.w3.org/Graphics/SVG/1.1/DTD/svg11.dtd">
<!-- Generated by graphviz version 12.2.1 (20241206.2353)
 -->
<!-- Title: pipeline Pages: 1 -->
<svg width="525pt" height="341pt"
 viewBox="0.00 0.00 524.65 340.74" xmlns="http://www.w3.org/2000/svg" xmlns:xlink="http://www.w3.org/1999/xlink">
<g id="graph0" class="graph" transform="scale(1 1) rotate(0) translate(8.64 332.1)">
<title>pipeline</title>
<!-- model&#45;&gt;ranked -->
<g id="edge1" class="edge">
<title>model&#45;&gt;ranked</title>
<path fill="none" stroke="#333333" stroke-width="0.7" d="M117.59,-304.2C143.88,-304.2 177.02,-304.2 202.6,-304.2"/>
<polygon fill="#333333" stroke="#333333" stroke-width="0.7" points="202.38,-306.48 208.88,-304.2 202.38,-301.93 202.38,-306.48"/>
</g>
<!-- ranked&#45;&gt;eligible -->
<g id="edge2" class="edge">
<title>ranked&#45;&gt;eligible</title>
<path fill="none" stroke="#333333" stroke-width="0.7" d="M275.8,-304.2C302.84,-304.2 341.25,-304.2 370.39,-304.2"/>
<polygon fill="#333333" stroke="#333333" stroke-width="0.7" points="370.02,-306.48 376.52,-304.2 370.02,-301.93 370.02,-306.48"/>
</g>
<!-- eligible&#45;&gt;emit -->
<g id="edge3" class="edge">
<title>eligible&#45;&gt;emit</title>
<path fill="none" stroke="#333333" stroke-width="0.7" d="M411.98,-285.03C411.98,-273.06 411.98,-257.48 411.98,-244.33"/>
<polygon fill="#333333" stroke="#333333" stroke-width="0.7" points="414.25,-244.48 411.98,-237.98 409.7,-244.48 414.25,-244.48"/>
</g>
<!-- emit&#45;&gt;spool -->
<g id="edge4" class="edge">
<title>emit&#45;&gt;spool</title>
<path fill="none" stroke="#333333" stroke-width="0.7" d="M356.1,-217.8C338.09,-217.8 318.1,-217.8 299.99,-217.8"/>
<polygon fill="#333333" stroke="#333333" stroke-width="0.7" points="300.45,-215.53 293.95,-217.8 300.45,-220.08 300.45,-215.53"/>
</g>
<!-- spool&#45;&gt;gpu -->
<g id="edge5" class="edge">
<title>spool&#45;&gt;gpu</title>
<path fill="none" stroke="#333333" stroke-width="0.7" d="M192.47,-217.8C165.1,-217.8 131.97,-217.8 107.64,-217.8"/>
<polygon fill="#333333" stroke="#333333" stroke-width="0.7" points="107.95,-215.53 101.45,-217.8 107.95,-220.08 107.95,-215.53"/>
</g>
<!-- gpu&#45;&gt;validate -->
<g id="edge6" class="edge">
<title>gpu&#45;&gt;validate</title>
<path fill="none" stroke="#333333" stroke-width="0.7" d="M73.58,-199.9C73.58,-187.72 73.58,-171.4 73.58,-157.75"/>
<polygon fill="#333333" stroke="#333333" stroke-width="0.7" points="75.85,-158.04 73.58,-151.54 71.3,-158.04 75.85,-158.04"/>
</g>
<!-- validate&#45;&gt;discovery -->
<g id="edge7" class="edge">
<title>validate&#45;&gt;discovery</title>
<path fill="none" stroke="#333333" stroke-width="0.7" d="M146.8,-131.4C153.76,-131.4 160.81,-131.4 167.78,-131.4"/>
<polygon fill="#333333" stroke="#333333" stroke-width="0.7" points="167.74,-133.68 174.24,-131.4 167.74,-129.13 167.74,-133.68"/>
</g>
<!-- validate&#45;&gt;journal -->
<g id="edge10" class="edge">
<title>validate:s&#45;&gt;journal:w</title>
<path fill="none" stroke="#333333" stroke-width="0.7" d="M73.58,-112.14C73.58,-112.14 298.11,-57.24 341.09,-46.73"/>
<polygon fill="#333333" stroke="#333333" stroke-width="0.7" points="341.35,-49.01 347.12,-45.25 340.27,-44.59 341.35,-49.01"/>
</g>
<!-- discovery&#45;&gt;prefix -->
<g id="edge8" class="edge">
<title>discovery&#45;&gt;prefix</title>
<path fill="none" stroke="#333333" stroke-width="0.7" d="M310.13,-131.4C326.69,-131.4 344.16,-131.4 359.87,-131.4"/>
<polygon fill="#333333" stroke="#333333" stroke-width="0.7" points="359.87,-133.68 366.37,-131.4 359.87,-129.13 359.87,-133.68"/>
</g>
<!-- prefix&#45;&gt;journal -->
<g id="edge9" class="edge">
<title>prefix&#45;&gt;journal</title>
<path fill="none" stroke="#333333" stroke-width="0.7" d="M411.98,-112.23C411.98,-100.26 411.98,-84.68 411.98,-71.53"/>
<polygon fill="#333333" stroke="#333333" stroke-width="0.7" points="414.25,-71.68 411.98,-65.18 409.7,-71.68 414.25,-71.68"/>
</g>
<!-- history&#45;&gt;feedback_a -->
<g id="edge12" class="edge">
<title>history&#45;&gt;feedback_a</title>
<path fill="none" stroke="#333333" stroke-width="0.7" stroke-dasharray="5,2" d="M73.58,-25.81C73.58,-14.47 73.58,-2.02 73.58,-0.51"/>
</g>
<!-- journal&#45;&gt;history -->
<g id="edge11" class="edge">
<title>journal&#45;&gt;history</title>
<path fill="none" stroke="#333333" stroke-width="0.7" d="M348.32,-45C290.56,-45 205.45,-45 145.3,-45"/>
<polygon fill="#333333" stroke="#333333" stroke-width="0.7" points="145.65,-42.73 139.15,-45 145.65,-47.28 145.65,-42.73"/>
</g>
<!-- feedback_a&#45;&gt;feedback_b -->
<g id="edge13" class="edge">
<title>feedback_a&#45;&gt;feedback_b</title>
<path fill="none" stroke="#333333" stroke-width="0.7" stroke-dasharray="5,2" d="M73.89,-0.36C86.81,-0.36 493.99,-0.36 506.71,-0.36"/>
</g>
<!-- feedback_b&#45;&gt;feedback_c -->
<g id="edge14" class="edge">
<title>feedback_b&#45;&gt;feedback_c</title>
<path fill="none" stroke="#333333" stroke-width="0.7" stroke-dasharray="5,2" d="M507.01,-0.58C507.01,-9.64 507.01,-295.07 507.01,-303.99"/>
</g>
<!-- feedback_c&#45;&gt;eligible -->
<g id="edge15" class="edge">
<title>feedback_c&#45;&gt;eligible</title>
<path fill="none" stroke="#333333" stroke-width="0.7" stroke-dasharray="5,2" d="M506.74,-304.2C503.81,-304.2 477.77,-304.2 453.73,-304.2"/>
<polygon fill="#333333" stroke="#333333" stroke-width="0.7" points="453.92,-301.93 447.42,-304.2 453.92,-306.48 453.92,-301.93"/>
</g>
<!-- model -->
<g id="node1" class="node">
<title>model</title>
<polygon fill="white" stroke="#333333" stroke-width="0.7" points="117.9,-323.46 29.25,-323.46 29.25,-284.94 117.9,-284.94 117.9,-323.46"/>
<text text-anchor="middle" x="73.58" y="-307.25" font-family="Times,serif" font-size="11.00" fill="#171717">Versioned model</text>
<text text-anchor="middle" x="73.58" y="-293.75" font-family="Times,serif" font-size="11.00" fill="#171717">and weights</text>
</g>
<!-- ranked -->
<g id="node2" class="node">
<title>ranked</title>
<polygon fill="white" stroke="#333333" stroke-width="0.7" points="275.85,-323.46 209.7,-323.46 209.7,-284.94 275.85,-284.94 275.85,-323.46"/>
<text text-anchor="middle" x="242.77" y="-307.25" font-family="Times,serif" font-size="11.00" fill="#171717">Compile</text>
<text text-anchor="middle" x="242.77" y="-293.75" font-family="Times,serif" font-size="11.00" fill="#171717">ranked plan</text>
</g>
<!-- eligible -->
<g id="node3" class="node">
<title>eligible</title>
<polygon fill="white" stroke="#333333" stroke-width="0.7" points="446.55,-323.46 377.4,-323.46 377.4,-284.94 446.55,-284.94 446.55,-323.46"/>
<text text-anchor="middle" x="411.98" y="-307.25" font-family="Times,serif" font-size="11.00" fill="#171717">Prepare</text>
<text text-anchor="middle" x="411.98" y="-293.75" font-family="Times,serif" font-size="11.00" fill="#171717">eligible plan</text>
</g>
<!-- emit -->
<g id="node4" class="node">
<title>emit</title>
<polygon fill="white" stroke="#333333" stroke-width="0.7" points="467.93,-237.06 356.03,-237.06 356.03,-198.54 467.93,-198.54 467.93,-237.06"/>
<text text-anchor="middle" x="411.98" y="-220.85" font-family="Times,serif" font-size="11.00" fill="#171717">Native emission</text>
<text text-anchor="middle" x="411.98" y="-207.35" font-family="Times,serif" font-size="11.00" fill="#171717">Bounded plan interval</text>
</g>
<!-- spool -->
<g id="node5" class="node">
<title>spool</title>
<polygon fill="white" stroke="#333333" stroke-width="0.7" points="293.1,-237.06 192.45,-237.06 192.45,-198.54 293.1,-198.54 293.1,-237.06"/>
<text text-anchor="middle" x="242.77" y="-220.85" font-family="Times,serif" font-size="11.00" fill="#171717">Hex spool</text>
<text text-anchor="middle" x="242.77" y="-207.35" font-family="Times,serif" font-size="11.00" fill="#171717">Temporary wordlist</text>
</g>
<!-- gpu -->
<g id="node6" class="node">
<title>gpu</title>
<polygon fill="white" stroke="#333333" stroke-width="0.7" points="100.58,-235.8 46.58,-235.8 46.58,-199.8 100.58,-199.8 100.58,-235.8"/>
<text text-anchor="middle" x="73.58" y="-214.1" font-family="Times,serif" font-size="11.00" fill="#171717">Hashcat</text>
</g>
<!-- validate -->
<g id="node7" class="node">
<title>validate</title>
<polygon fill="white" stroke="#333333" stroke-width="0.7" points="147.15,-150.66 0,-150.66 0,-112.14 147.15,-112.14 147.15,-150.66"/>
<text text-anchor="middle" x="73.58" y="-134.45" font-family="Times,serif" font-size="11.00" fill="#171717">Validate result</text>
<text text-anchor="middle" x="73.58" y="-120.95" font-family="Times,serif" font-size="11.00" fill="#171717">Independently confirm any hit</text>
</g>
<!-- discovery -->
<g id="node8" class="node">
<title>discovery</title>
<polygon fill="white" stroke="#333333" stroke-width="0.7" points="310.35,-150.66 175.2,-150.66 175.2,-112.14 310.35,-112.14 310.35,-150.66"/>
<text text-anchor="middle" x="242.77" y="-134.45" font-family="Times,serif" font-size="11.00" fill="#171717">Save private discovery</text>
<text text-anchor="middle" x="242.77" y="-120.95" font-family="Times,serif" font-size="11.00" fill="#171717">Separate from journal state</text>
</g>
<!-- prefix -->
<g id="node9" class="node">
<title>prefix</title>
<polygon fill="white" stroke="#333333" stroke-width="0.7" points="456.68,-150.66 367.28,-150.66 367.28,-112.14 456.68,-112.14 456.68,-150.66"/>
<text text-anchor="middle" x="411.98" y="-134.45" font-family="Times,serif" font-size="11.00" fill="#171717">Check preceding</text>
<text text-anchor="middle" x="411.98" y="-120.95" font-family="Times,serif" font-size="11.00" fill="#171717">prefix separately</text>
</g>
<!-- history -->
<g id="node10" class="node">
<title>history</title>
<polygon fill="#f5f5f5" stroke="#333333" stroke-width="0.7" points="138.15,-64.26 9,-64.26 9,-25.74 138.15,-25.74 138.15,-64.26"/>
<text text-anchor="middle" x="73.58" y="-48.05" font-family="Times,serif" font-size="11.00" fill="#171717">Accepted coverage</text>
<text text-anchor="middle" x="73.58" y="-34.55" font-family="Times,serif" font-size="11.00" fill="#171717">Target and checker policy</text>
</g>
<!-- journal -->
<g id="node11" class="node">
<title>journal</title>
<polygon fill="#f5f5f5" stroke="#333333" stroke-width="0.7" points="475.8,-64.26 348.15,-64.26 348.15,-25.74 475.8,-25.74 475.8,-64.26"/>
<text text-anchor="middle" x="411.98" y="-48.05" font-family="Times,serif" font-size="11.00" fill="#171717">Commit acknowledgment</text>
<text text-anchor="middle" x="411.98" y="-34.55" font-family="Times,serif" font-size="11.00" fill="#171717">SQLite journal</text>
</g>
<!-- feedback_a -->
<!-- feedback_b -->
<!-- feedback_c -->
<!-- hit_label -->
<g id="node15" class="node">
<title>hit_label</title>
<text text-anchor="middle" x="159.25" y="-154.74" font-family="Times,serif" font-size="9.00" fill="#171717">Confirmed hit</text>
</g>
<!-- negative_label -->
<g id="node16" class="node">
<title>negative_label</title>
<text text-anchor="middle" x="244.93" y="-88.5" font-family="Times,serif" font-size="9.00" fill="#171717">Completed negative batch</text>
</g>
<!-- accepted_label -->
<g id="node17" class="node">
<title>accepted_label</title>
<text text-anchor="middle" x="242.77" y="-53.94" font-family="Times,serif" font-size="9.00" fill="#171717">Accepted completion</text>
</g>
</g>
</svg>
